<?xml version="1.0" encoding="UTF-8" standalone="no"?>
<!DOCTYPE svg PUBLIC "-//W3C//DTD SVG 1.1//EN" "http://www.w3.org/Graphics/SVG/1.1/DTD/svg11.dtd">
<!-- Generated by Microsoft Visio, SVG Export Symbols_Trace.svg Page-1 -->
<svg xmlns="http://www.w3.org/2000/svg" xmlns:xlink="http://www.w3.org/1999/xlink" xmlns:ev="http://www.w3.org/2001/xml-events"
		xmlns:v="http://schemas.microsoft.com/visio/2003/SVGExtensions/" width="1.73034in" height="1.55113in"
		viewBox="0 0 124.584 111.681" xml:space="preserve" color-interpolation-filters="sRGB" class="st9">
	<v:documentProperties v:langID="1033" v:metric="true" v:viewMarkup="false"/>

	<style type="text/css">
	<![CDATA[
		.st1 {visibility:visible}
		.st2 {fill:#5b9bd5;fill-opacity:0.22;filter:url(#filter_2)}
		.st3 {fill:none;filter:url(#filter_2);stroke:#5b9bd5;stroke-opacity:0.22}
		.st4 {fill:#5b9bd5}
		.st5 {stroke:#c7c8c8;stroke-width:0.25}
		.st6 {fill:#ffffff;stroke:none;stroke-width:0.25}
		.st7 {fill:none;stroke:none;stroke-width:0.25}
		.st8 {fill:#5b9bd5;font-family:Webdings;font-size:3em}
		.st9 {fill:none;fill-rule:evenodd;font-size:12px;overflow:visible;stroke-linecap:square;stroke-miterlimit:3}
	]]>
	</style>

	<defs id="Filters">
		<filter id="filter_2">
			<feGaussianBlur stdDeviation="2"/>
		</filter>
	</defs>
	<g v:mID="0" v:index="1" v:groupContext="foregroundPage">
		<title>Page-1</title>
		<v:pageProperties v:drawingScale="0.0393701" v:pageScale="0.0393701" v:drawingUnits="24" v:shadowOffsetX="8.50394"
				v:shadowOffsetY="-8.50394"/>
		<v:layer v:name="Flowchart" v:index="0"/>
		<g id="group32-1" transform="translate(0.25,-5.82677)" v:mID="32" v:groupContext="group">
			<title>Sheet.32</title>
			<g id="shape10-2" v:mID="10" v:groupContext="shape" v:layerMember="0" transform="translate(20.5512,-14.1732)">
				<title>Person</title>
				<v:userDefs>
					<v:ud v:nameU="visVersion" v:prompt="" v:val="VT0(15):26"/>
					<v:ud v:nameU="ConnGap" v:prompt="" v:val="VT0(0.00012908222537757):24"/>
				</v:userDefs>
				<g id="shadow10-3" v:groupContext="shadow" v:shadowOffsetX="0.345598" v:shadowOffsetY="-1.97279" v:shadowType="1"
						transform="matrix(1,0,0,1,0.345598,1.97279)" class="st1">
					<path d="M27.48 62.28 L6.54 62.28 C5.03 62.28 3.64 62.78 2.54 63.62 C1.77 64.21 1.13 64.96 0.69 65.82 C0.25 66.68
								 0 67.64 0 68.67 L0 92.94 L5.73 92.94 L5.73 111.68 L28.07 111.68 L28.07 92.94 L34.02 92.94 L34.02
								 68.67 C34.02 67.19 33.5 65.84 32.64 64.76 C32.04 64 31.27 63.38 30.39 62.95 C29.52 62.52 28.53 62.28
								 27.48 62.28 ZM26.79 50.27 A9.78293 9.45354 -180 1 0 7.22 50.27 A9.78293 9.45354 -180 1 0 26.79 50.27
								 Z" class="st2"/>
					<path d="M27.48 62.28 L6.54 62.28 C5.03 62.28 3.64 62.78 2.54 63.62 C1.77 64.21 1.13 64.96 0.69 65.82 C0.25 66.68
								 0 67.64 0 68.67 L0 92.94 L5.73 92.94 L5.73 111.68 L28.07 111.68 L28.07 92.94 L34.02 92.94 L34.02
								 68.67 C34.02 67.19 33.5 65.84 32.64 64.76 C32.04 64 31.27 63.38 30.39 62.95 C29.52 62.52 28.53 62.28
								 27.48 62.28" class="st3"/>
					<path d="M17.01 111.68 L17.01 96.7" class="st3"/>
					<path d="M5.73 92.94 L5.73 80.01" class="st3"/>
					<path d="M28.07 92.94 L28.07 80.01" class="st3"/>
					<path d="M26.79 50.27 A9.78293 9.45354 -180 1 0 7.22 50.27 A9.78293 9.45354 -180 1 0 26.79 50.27" class="st3"/>
				</g>
				<path d="M27.48 62.28 L6.54 62.28 C5.03 62.28 3.64 62.78 2.54 63.62 C1.77 64.21 1.13 64.96 0.69 65.82 C0.25 66.68
							 0 67.64 0 68.67 L0 92.94 L5.73 92.94 L5.73 111.68 L28.07 111.68 L28.07 92.94 L34.02 92.94 L34.02 68.67
							 C34.02 67.19 33.5 65.84 32.64 64.76 C32.04 64 31.27 63.38 30.39 62.95 C29.52 62.52 28.53 62.28 27.48
							 62.28 ZM26.79 50.27 A9.78293 9.45354 -180 1 0 7.22 50.27 A9.78293 9.45354 -180 1 0 26.79 50.27 Z"
						class="st4"/>
				<path d="M27.48 62.28 L6.54 62.28 C5.03 62.28 3.64 62.78 2.54 63.62 C1.77 64.21 1.13 64.96 0.69 65.82 C0.25 66.68
							 0 67.64 0 68.67 L0 92.94 L5.73 92.94 L5.73 111.68 L28.07 111.68 L28.07 92.94 L34.02 92.94 L34.02 68.67
							 C34.02 67.19 33.5 65.84 32.64 64.76 C32.04 64 31.27 63.38 30.39 62.95 C29.52 62.52 28.53 62.28 27.48
							 62.28" class="st5"/>
				<path d="M17.01 111.68 L17.01 96.7" class="st5"/>
				<path d="M5.73 92.94 L5.73 80.01" class="st5"/>
				<path d="M28.07 92.94 L28.07 80.01" class="st5"/>
				<path d="M26.79 50.27 A9.78293 9.45354 -180 1 0 7.22 50.27 A9.78293 9.45354 -180 1 0 26.79 50.27" class="st5"/>
			</g>
			<g id="shape13-18" v:mID="13" v:groupContext="shape">
				<title>Sheet.13</title>
				<rect x="0" y="63.4921" width="90.7087" height="48.189" class="st6"/>
			</g>
			<g id="shape11-20" v:mID="11" v:groupContext="shape" transform="translate(39.045,-32.4704)">
				<title>Sheet.11</title>
				<desc></desc>
				<v:textBlock v:margins="rect(4,4,4,4)" v:tabSpace="42.5197"/>
				<v:textRect cx="42.5197" cy="75.1141" width="85.04" height="73.1339"/>
				<rect x="0" y="38.5472" width="85.0394" height="73.1339" class="st7"/>
				<text x="4" y="93.11" class="st8" v:langID="1033"><v:paragraph v:bulletSize="0.166667"/><v:tabList/></text>			</g>
		</g>
	</g>
</svg>
