<?xml version="1.0" encoding="UTF-8" standalone="no"?>
<!DOCTYPE svg PUBLIC "-//W3C//DTD SVG 1.1//EN" "http://www.w3.org/Graphics/SVG/1.1/DTD/svg11.dtd">
<!-- Generated by Microsoft Visio, SVG Export Symbols_New.svg Page-1 -->
<svg xmlns="http://www.w3.org/2000/svg" xmlns:xlink="http://www.w3.org/1999/xlink" xmlns:ev="http://www.w3.org/2001/xml-events"
		xmlns:v="http://schemas.microsoft.com/visio/2003/SVGExtensions/" width="0.782726in" height="0.782726in"
		viewBox="0 0 56.3563 56.3563" xml:space="preserve" color-interpolation-filters="sRGB" class="st5">
	<v:documentProperties v:langID="1033" v:metric="true" v:viewMarkup="false"/>

	<style type="text/css">
	<![CDATA[
		.st1 {visibility:visible}
		.st2 {fill:#5b9bd5;fill-opacity:0.22;filter:url(#filter_2);stroke:#5b9bd5;stroke-opacity:0.22}
		.st3 {fill:#5b9bd5;stroke:#c7c8c8;stroke-width:0.25}
		.st4 {fill:#ffffff}
		.st5 {fill:none;fill-rule:evenodd;font-size:12px;overflow:visible;stroke-linecap:square;stroke-miterlimit:3}
	]]>
	</style>

	<defs id="Filters">
		<filter id="filter_2">
			<feGaussianBlur stdDeviation="2"/>
		</filter>
	</defs>
	<g v:mID="0" v:index="1" v:groupContext="foregroundPage">
		<title>Page-1</title>
		<v:pageProperties v:drawingScale="0.0393701" v:pageScale="0.0393701" v:drawingUnits="24" v:shadowOffsetX="8.50394"
				v:shadowOffsetY="-8.50394"/>
		<v:layer v:name="Flowchart" v:index="0"/>
		<g id="group2-1" transform="translate(3.02941,-5.34782)" v:mID="2" v:groupContext="group" v:layerMember="0">
			<v:userDefs>
				<v:ud v:nameU="visVersion" v:prompt="" v:val="VT0(15):26"/>
				<v:ud v:nameU="ConnGap" v:prompt="" v:val="VT0(0.00012908222537757):24"/>
			</v:userDefs>
			<title>Submit</title>
			<g id="shape3-2" v:mID="3" v:groupContext="shape" v:layerMember="0" transform="translate(6.90012,-1.16068)">
				<title>Sheet.3</title>
				<g id="shadow3-3" v:groupContext="shadow" v:shadowOffsetX="0.345598" v:shadowOffsetY="-1.97279" v:shadowType="1"
						transform="matrix(1,0,0,1,0.345598,1.97279)" class="st1">
					<path d="M35.81 17.14 L26.9 7.91 L0 7.91 L0 56.36 L35.81 56.36 L35.81 17.14 Z" class="st2"/>
				</g>
				<path d="M35.81 17.14 L26.9 7.91 L0 7.91 L0 56.36 L35.81 56.36 L35.81 17.14 Z" class="st3"/>
			</g>
			<g id="shape4-7" v:mID="4" v:groupContext="shape" v:layerMember="0" transform="translate(13.5556,-3.97405)">
				<title>Sheet.4</title>
				<v:userDefs>
					<v:ud v:nameU="SurroundingRegionColor" v:prompt="" v:val="VT5(1)"/>
					<v:ud v:nameU="SurroundingRegionColor" v:prompt="" v:val="VT5(#5b9bd5)"/>
				</v:userDefs>
				<path d="M19.99 11.05 L28.61 19.92 L19.99 19.92 L19.99 11.05 ZM0 19.56 L8.88 19.56 L8.88 18.43 L0 18.43 L0 19.56
							 ZM0 24.74 L8.88 24.74 L8.88 23.61 L0 23.61 L-0 24.74 ZM0 29.93 L22.49 29.93 L22.49 28.8 L0 28.8 L-0
							 29.93 ZM0 35.11 L22.49 35.11 L22.49 33.98 L0 33.98 L-0 35.11 ZM0 40.3 L22.49 40.3 L22.49 39.16 L0 39.16
							 L-0 40.3 ZM13.45 49.84 L13.45 44.46 L8.95 44.46 L8.95 49.84 L4.82 49.84 L11.25 56.36 L17.67 49.84 L13.45
							 49.84 Z" class="st4"/>
			</g>
			<g id="shape5-10" v:mID="5" v:groupContext="shape" v:layerMember="0">
				<title>Sheet.5</title>
				<g id="shadow5-11" v:groupContext="shadow" v:shadowOffsetX="0.345598" v:shadowOffsetY="-1.97279" v:shadowType="1"
						transform="matrix(1,0,0,1,0.345598,1.97279)" class="st1">
					<path d="M12.45 43.3 L0 43.3 L0 56.36 L49.61 56.36 L49.61 43.3 L37.25 43.3 L37.25 49.83 L27.6 49.83 L24.8 52.38
								 L22.05 49.83 L12.45 49.83 L12.45 43.3 ZM42.71 43.3 L49.61 43.3 L49.61 42.16 L42.71 37.04 L42.71
								 43.3 ZM6.9 36.96 L0 42.16 L0 43.3 L6.9 43.3 L6.9 36.96 Z" class="st2"/>
				</g>
				<path d="M12.45 43.3 L0 43.3 L0 56.36 L49.61 56.36 L49.61 43.3 L37.25 43.3 L37.25 49.83 L27.6 49.83 L24.8 52.38 L22.05
							 49.83 L12.45 49.83 L12.45 43.3 ZM42.71 43.3 L49.61 43.3 L49.61 42.16 L42.71 37.04 L42.71 43.3 ZM6.9
							 36.96 L0 42.16 L0 43.3 L6.9 43.3 L6.9 36.96 Z" class="st3"/>
			</g>
		</g>
	</g>
</svg>
