<?xml version="1.0" encoding="UTF-8" standalone="no"?>
<!DOCTYPE svg PUBLIC "-//W3C//DTD SVG 1.1//EN" "http://www.w3.org/Graphics/SVG/1.1/DTD/svg11.dtd">
<!-- Generated by Microsoft Visio, SVG Export Symbols_User.svg Page-1 -->
<svg xmlns="http://www.w3.org/2000/svg" xmlns:xlink="http://www.w3.org/1999/xlink" xmlns:ev="http://www.w3.org/2001/xml-events"
		xmlns:v="http://schemas.microsoft.com/visio/2003/SVGExtensions/" width="1.26679in" height="1.18166in"
		viewBox="0 0 91.2087 85.0797" xml:space="preserve" color-interpolation-filters="sRGB" class="st7">
	<v:documentProperties v:langID="1033" v:metric="true" v:viewMarkup="false"/>

	<style type="text/css">
	<![CDATA[
		.st1 {visibility:visible}
		.st2 {fill:#5b9bd5;fill-opacity:0.22;filter:url(#filter_2)}
		.st3 {fill:none;filter:url(#filter_2);stroke:#5b9bd5;stroke-opacity:0.22}
		.st4 {fill:#00b050}
		.st5 {stroke:#c7c8c8;stroke-width:0.25}
		.st6 {fill:#ffffff;stroke:none;stroke-width:0.25}
		.st7 {fill:none;fill-rule:evenodd;font-size:12px;overflow:visible;stroke-linecap:square;stroke-miterlimit:3}
	]]>
	</style>

	<defs id="Filters">
		<filter id="filter_2">
			<feGaussianBlur stdDeviation="2"/>
		</filter>
	</defs>
	<g v:mID="0" v:index="1" v:groupContext="foregroundPage">
		<title>Page-1</title>
		<v:pageProperties v:drawingScale="0.0393701" v:pageScale="0.0393701" v:drawingUnits="24" v:shadowOffsetX="8.50394"
				v:shadowOffsetY="-8.50394"/>
		<v:layer v:name="Flowchart" v:index="0"/>
		<g id="group39-1" transform="translate(0.25,-0.25)" v:mID="39" v:groupContext="group">
			<title>Sheet.39</title>
			<g id="shape35-2" v:mID="35" v:groupContext="shape" v:layerMember="0" transform="translate(28.3465,-12.5614)">
				<title>Person</title>
				<v:userDefs>
					<v:ud v:nameU="visVersion" v:prompt="" v:val="VT0(15):26"/>
					<v:ud v:nameU="ConnGap" v:prompt="" v:val="VT0(0.00012908222537757):24"/>
				</v:userDefs>
				<g id="shadow35-3" v:groupContext="shadow" v:shadowOffsetX="0.345598" v:shadowOffsetY="-1.97279" v:shadowType="1"
						transform="matrix(1,0,0,1,0.345598,1.97279)" class="st1">
					<path d="M27.48 35.68 L6.54 35.68 C5.03 35.68 3.64 36.18 2.54 37.02 C1.77 37.61 1.13 38.36 0.69 39.22 C0.25 40.08
								 0 41.04 0 42.07 L0 66.34 L5.73 66.34 L5.73 85.08 L28.07 85.08 L28.07 66.34 L34.02 66.34 L34.02 42.07
								 C34.02 40.59 33.5 39.24 32.64 38.15 C32.04 37.4 31.27 36.78 30.39 36.35 C29.52 35.92 28.53 35.68
								 27.48 35.68 ZM26.79 23.67 A9.78293 9.45354 -180 1 0 7.22 23.67 A9.78293 9.45354 -180 1 0 26.79 23.67
								 Z" class="st2"/>
					<path d="M27.48 35.68 L6.54 35.68 C5.03 35.68 3.64 36.18 2.54 37.02 C1.77 37.61 1.13 38.36 0.69 39.22 C0.25 40.08
								 0 41.04 0 42.07 L0 66.34 L5.73 66.34 L5.73 85.08 L28.07 85.08 L28.07 66.34 L34.02 66.34 L34.02 42.07
								 C34.02 40.59 33.5 39.24 32.64 38.15 C32.04 37.4 31.27 36.78 30.39 36.35 C29.52 35.92 28.53 35.68
								 27.48 35.68" class="st3"/>
					<path d="M17.01 85.08 L17.01 70.1" class="st3"/>
					<path d="M5.73 66.34 L5.73 53.41" class="st3"/>
					<path d="M28.07 66.34 L28.07 53.41" class="st3"/>
					<path d="M26.79 23.67 A9.78293 9.45354 -180 1 0 7.22 23.67 A9.78293 9.45354 -180 1 0 26.79 23.67" class="st3"/>
				</g>
				<path d="M27.48 35.68 L6.54 35.68 C5.03 35.68 3.64 36.18 2.54 37.02 C1.77 37.61 1.13 38.36 0.69 39.22 C0.25 40.08
							 0 41.04 0 42.07 L0 66.34 L5.73 66.34 L5.73 85.08 L28.07 85.08 L28.07 66.34 L34.02 66.34 L34.02 42.07
							 C34.02 40.59 33.5 39.24 32.64 38.15 C32.04 37.4 31.27 36.78 30.39 36.35 C29.52 35.92 28.53 35.68 27.48
							 35.68 ZM26.79 23.67 A9.78293 9.45354 -180 1 0 7.22 23.67 A9.78293 9.45354 -180 1 0 26.79 23.67 Z"
						class="st4"/>
				<path d="M27.48 35.68 L6.54 35.68 C5.03 35.68 3.64 36.18 2.54 37.02 C1.77 37.61 1.13 38.36 0.69 39.22 C0.25 40.08
							 0 41.04 0 42.07 L0 66.34 L5.73 66.34 L5.73 85.08 L28.07 85.08 L28.07 66.34 L34.02 66.34 L34.02 42.07
							 C34.02 40.59 33.5 39.24 32.64 38.15 C32.04 37.4 31.27 36.78 30.39 36.35 C29.52 35.92 28.53 35.68 27.48
							 35.68" class="st5"/>
				<path d="M17.01 85.08 L17.01 70.1" class="st5"/>
				<path d="M5.73 66.34 L5.73 53.41" class="st5"/>
				<path d="M28.07 66.34 L28.07 53.41" class="st5"/>
				<path d="M26.79 23.67 A9.78293 9.45354 -180 1 0 7.22 23.67 A9.78293 9.45354 -180 1 0 26.79 23.67" class="st5"/>
			</g>
			<g id="shape36-18" v:mID="36" v:groupContext="shape">
				<title>Sheet.36</title>
				<rect x="0" y="36.8907" width="90.7087" height="48.189" class="st6"/>
			</g>
		</g>
	</g>
</svg>
