<?xml version="1.0" encoding="UTF-8" standalone="no"?>
<!DOCTYPE svg PUBLIC "-//W3C//DTD SVG 1.1//EN" "http://www.w3.org/Graphics/SVG/1.1/DTD/svg11.dtd">
<!-- Generated by Microsoft Visio, SVG Export Symbols_Termination.svg Page-1 -->
<svg xmlns="http://www.w3.org/2000/svg" xmlns:xlink="http://www.w3.org/1999/xlink" xmlns:ev="http://www.w3.org/2001/xml-events"
		xmlns:v="http://schemas.microsoft.com/visio/2003/SVGExtensions/" width="0.784969in" height="0.784801in"
		viewBox="0 0 56.5178 56.5057" xml:space="preserve" color-interpolation-filters="sRGB" class="st5">
	<v:documentProperties v:langID="1033" v:metric="true" v:viewMarkup="false"/>

	<style type="text/css">
	<![CDATA[
		.st1 {visibility:visible}
		.st2 {fill:#5b9bd5;fill-opacity:0.22;filter:url(#filter_2);stroke:#5b9bd5;stroke-opacity:0.22}
		.st3 {fill:#5b9bd5;stroke:#c7c8c8;stroke-width:0.25}
		.st4 {fill:#ffffff}
		.st5 {fill:none;fill-rule:evenodd;font-size:12px;overflow:visible;stroke-linecap:square;stroke-miterlimit:3}
	]]>
	</style>

	<defs id="Filters">
		<filter id="filter_2">
			<feGaussianBlur stdDeviation="2"/>
		</filter>
	</defs>
	<g v:mID="0" v:index="1" v:groupContext="foregroundPage">
		<title>Page-1</title>
		<v:pageProperties v:drawingScale="0.0393701" v:pageScale="0.0393701" v:drawingUnits="24" v:shadowOffsetX="8.50394"
				v:shadowOffsetY="-8.50394"/>
		<v:layer v:name="Flowchart" v:index="0"/>
		<g id="group24-1" transform="translate(3.02938,-5.49718)" v:mID="24" v:groupContext="group" v:layerMember="0">
			<v:userDefs>
				<v:ud v:nameU="visVersion" v:prompt="" v:val="VT0(15):26"/>
				<v:ud v:nameU="ConnGap" v:prompt="" v:val="VT0(0.00012908222537757):24"/>
			</v:userDefs>
			<title>Reject</title>
			<g id="shape25-2" v:mID="25" v:groupContext="shape" v:layerMember="0" transform="translate(0,-3.98289)">
				<title>Sheet.25</title>
				<g id="shadow25-3" v:groupContext="shadow" v:shadowOffsetX="0.345598" v:shadowOffsetY="-1.97279" v:shadowType="1"
						transform="matrix(1,0,0,1,0.345598,1.97279)" class="st1">
					<path d="M35 19.57 L26.3 10.88 L0 10.88 L0 56.51 L35 56.51 L35 19.57 Z" class="st2"/>
				</g>
				<path d="M35 19.57 L26.3 10.88 L0 10.88 L0 56.51 L35 56.51 L35 19.57 Z" class="st3"/>
			</g>
			<g id="shape26-7" v:mID="26" v:groupContext="shape" v:layerMember="0" transform="translate(6.37972,-13.161)">
				<title>Sheet.26</title>
				<v:userDefs>
					<v:ud v:nameU="SurroundingRegionColor" v:prompt="" v:val="VT5(1)"/>
					<v:ud v:nameU="SurroundingRegionColor" v:prompt="" v:val="VT5(#5b9bd5)"/>
				</v:userDefs>
				<path d="M13.12 56.51 L22.06 56.51 L22.06 55.35 L13.12 55.35 L13.12 56.51 ZM0 51.07 L22.06 51.07 L22.06 49.91 L0
							 49.91 L0 51.07 ZM0 45.63 L22.06 45.63 L22.06 44.48 L0 44.48 L0 45.63 ZM0 40.2 L22.06 40.2 L22.06 39.04
							 L0 39.04 L0 40.2 ZM0 34.76 L8.93 34.76 L8.93 33.6 L0 33.6 L0 34.76 ZM0 29.33 L8.93 29.33 L8.93 28.17
							 L0 28.17 L0 29.33 ZM19.66 20.37 L19.66 28.77 L28.08 28.77 L19.66 20.37 Z" class="st4"/>
			</g>
			<g id="shape27-10" v:mID="27" v:groupContext="shape" v:layerMember="0" transform="translate(17.9102,0)">
				<title>Sheet.27</title>
				<g id="shadow27-11" v:groupContext="shadow" v:shadowOffsetX="0.345598" v:shadowOffsetY="-1.97279" v:shadowType="1"
						transform="matrix(1,0,0,1,0.345598,1.97279)" class="st1">
					<path d="M31.7 31.31 L25.77 25.52 L15.85 35.22 L5.92 25.52 L0 31.31 L9.93 41.01 L0 50.72 L5.92 56.51 L15.85 46.8
								 L25.77 56.51 L31.7 50.72 L21.77 41.01 L31.7 31.31 Z" class="st2"/>
				</g>
				<path d="M31.7 31.31 L25.77 25.52 L15.85 35.22 L5.92 25.52 L0 31.31 L9.93 41.01 L0 50.72 L5.92 56.51 L15.85 46.8
							 L25.77 56.51 L31.7 50.72 L21.77 41.01 L31.7 31.31 Z" class="st3"/>
			</g>
		</g>
	</g>
</svg>
