<?xml version="1.0" encoding="UTF-8" standalone="no"?>
<!DOCTYPE svg PUBLIC "-//W3C//DTD SVG 1.1//EN" "http://www.w3.org/Graphics/SVG/1.1/DTD/svg11.dtd">
<!-- Generated by Microsoft Visio, SVG Export Symbols_Help.svg Page-1 -->
<svg xmlns="http://www.w3.org/2000/svg" xmlns:xlink="http://www.w3.org/1999/xlink" xmlns:ev="http://www.w3.org/2001/xml-events"
		xmlns:v="http://schemas.microsoft.com/visio/2003/SVGExtensions/" width="1.27485in" height="1.27485in"
		viewBox="0 0 91.7894 91.7894" xml:space="preserve" color-interpolation-filters="sRGB" class="st6">
	<v:documentProperties v:langID="1033" v:metric="true" v:viewMarkup="false"/>

	<style type="text/css">
	<![CDATA[
		.st1 {visibility:visible}
		.st2 {fill:#5b9bd5;fill-opacity:0.22;filter:url(#filter_2);stroke:#5b9bd5;stroke-opacity:0.22}
		.st3 {fill:#5b9bd5;stroke:#c7c8c8;stroke-width:0.25}
		.st4 {fill:none;stroke:none;stroke-width:0.25}
		.st5 {fill:#5b9bd5;font-family:Arial;font-size:4.99999em;font-weight:bold}
		.st6 {fill:none;fill-rule:evenodd;font-size:12px;overflow:visible;stroke-linecap:square;stroke-miterlimit:3}
	]]>
	</style>

	<defs id="Filters">
		<filter id="filter_2">
			<feGaussianBlur stdDeviation="2"/>
		</filter>
	</defs>
	<g v:mID="0" v:index="1" v:groupContext="foregroundPage">
		<title>Page-1</title>
		<v:pageProperties v:drawingScale="0.0393701" v:pageScale="0.0393701" v:drawingUnits="24" v:shadowOffsetX="8.50394"
				v:shadowOffsetY="-8.50394"/>
		<g id="group34-1" transform="translate(3.02939,-5.34778)" v:mID="34" v:groupContext="group">
			<title>Sheet.34</title>
			<g id="shape30-2" v:mID="30" v:groupContext="shape">
				<title>Donut</title>
				<v:userDefs>
					<v:ud v:nameU="visVersion" v:prompt="" v:val="VT0(15):26"/>
				</v:userDefs>
				<g id="shadow30-3" v:groupContext="shadow" v:shadowOffsetX="0.345598" v:shadowOffsetY="-1.97279" v:shadowType="1"
						transform="matrix(1,0,0,1,0.345598,1.97279)" class="st1">
					<path d="M85.04 49.27 A42.5197 42.5197 -180 1 0 0 49.27 A42.5197 42.5197 -180 1 0 85.04 49.27 ZM11.34 49.27 A31.1811
								 31.1811 0 1 0 73.7 49.27 A31.1811 31.1811 0 1 0 11.34 49.27 Z" class="st2"/>
				</g>
				<path d="M85.04 49.27 A42.5197 42.5197 -180 1 0 0 49.27 A42.5197 42.5197 -180 1 0 85.04 49.27 ZM11.34 49.27 A31.1811
							 31.1811 0 1 0 73.7 49.27 A31.1811 31.1811 0 1 0 11.34 49.27 Z" class="st3"/>
			</g>
			<g id="shape31-7" v:mID="31" v:groupContext="shape" transform="translate(8.83331,-6.97231)">
				<title>Sheet.31</title>
				<desc>?</desc>
				<v:textBlock v:margins="rect(4,4,4,4)" v:tabSpace="42.5197"/>
				<v:textRect cx="33.6864" cy="59.8996" width="67.38" height="63.7795"/>
				<rect x="0" y="28.0098" width="67.3727" height="63.7795" class="st4"/>
				<text x="15.36" y="77.9" class="st5" v:langID="4105"><v:paragraph v:horizAlign="1"/><v:tabList/>?</text>			</g>
		</g>
	</g>
</svg>
