<?xml version="1.0" encoding="UTF-8" standalone="no"?>
<!DOCTYPE svg PUBLIC "-//W3C//DTD SVG 1.1//EN" "http://www.w3.org/Graphics/SVG/1.1/DTD/svg11.dtd">
<!-- Generated by Microsoft Visio, SVG Export Symbols_LicenceDenial.svg Page-1 -->
<svg xmlns="http://www.w3.org/2000/svg" xmlns:xlink="http://www.w3.org/1999/xlink" xmlns:ev="http://www.w3.org/2001/xml-events"
		xmlns:v="http://schemas.microsoft.com/visio/2003/SVGExtensions/" width="1.27485in" height="1.27485in"
		viewBox="0 0 91.7894 91.7894" xml:space="preserve" color-interpolation-filters="sRGB" class="st5">
	<v:documentProperties v:langID="1033" v:metric="true" v:viewMarkup="false"/>

	<style type="text/css">
	<![CDATA[
		.st1 {visibility:visible}
		.st2 {fill:#5b9bd5;fill-opacity:0.22;filter:url(#filter_2);stroke:#5b9bd5;stroke-opacity:0.22}
		.st3 {fill:#5b9bd5;stroke:#c7c8c8;stroke-width:0.25}
		.st4 {fill:#ffffff}
		.st5 {fill:none;fill-rule:evenodd;font-size:12px;overflow:visible;stroke-linecap:square;stroke-miterlimit:3}
	]]>
	</style>

	<defs id="Filters">
		<filter id="filter_2">
			<feGaussianBlur stdDeviation="2"/>
		</filter>
	</defs>
	<g v:mID="0" v:index="1" v:groupContext="foregroundPage">
		<title>Page-1</title>
		<v:pageProperties v:drawingScale="0.0393701" v:pageScale="0.0393701" v:drawingUnits="24" v:shadowOffsetX="8.50394"
				v:shadowOffsetY="-8.50394"/>
		<v:layer v:name="Flowchart" v:index="0"/>
		<g id="group33-1" transform="translate(3.0294,-5.34778)" v:mID="33" v:groupContext="group">
			<title>Sheet.33</title>
			<g id="group18-2" transform="translate(25.5118,-20.0787)" v:mID="18" v:groupContext="group" v:layerMember="0">
				<v:userDefs>
					<v:ud v:nameU="visVersion" v:prompt="" v:val="VT0(15):26"/>
					<v:ud v:nameU="ConnGap" v:prompt="" v:val="VT0(0.00012908222537757):24"/>
				</v:userDefs>
				<title>Document</title>
				<g id="shape19-3" v:mID="19" v:groupContext="shape" v:layerMember="0">
					<title>Sheet.19</title>
					<g id="shadow19-4" v:groupContext="shadow" v:shadowOffsetX="0.345598" v:shadowOffsetY="-1.97279"
							v:shadowType="1" transform="matrix(1,0,0,1,0.345598,1.97279)" class="st1">
						<path d="M34.02 53.54 L25.56 44.55 L0 44.55 L0 91.79 L34.02 91.79 L34.02 53.54 Z" class="st2"/>
					</g>
					<path d="M34.02 53.54 L25.56 44.55 L0 44.55 L0 91.79 L34.02 91.79 L34.02 53.54 Z" class="st3"/>
				</g>
				<g id="shape20-8" v:mID="20" v:groupContext="shape" v:layerMember="0" transform="translate(6.20079,-9.50418)">
					<title>Sheet.20</title>
					<v:userDefs>
						<v:ud v:nameU="SurroundingRegionColor" v:prompt="" v:val="VT5(1)"/>
						<v:ud v:nameU="SurroundingRegionColor" v:prompt="" v:val="VT5(#5b9bd5)"/>
					</v:userDefs>
					<path d="M12.76 91.79 L21.44 91.79 L21.44 90.59 L12.76 90.59 L12.76 91.79 ZM0 86.16 L21.44 86.16 L21.44 84.96
								 L0 84.96 L0 86.16 ZM0 80.53 L21.44 80.53 L21.44 79.33 L0 79.33 L0 80.53 ZM0 74.9 L21.44 74.9 L21.44
								 73.7 L0 73.7 L0 74.9 ZM0 69.27 L8.68 69.27 L8.68 68.08 L0 68.08 L0 69.27 ZM0 63.65 L8.68 63.65 L8.68
								 62.45 L0 62.45 L0 63.65 ZM19.11 54.37 L19.11 63.07 L27.3 63.07 L19.11 54.37 Z" class="st4"/>
				</g>
			</g>
			<g id="group23-11" v:mID="23" v:groupContext="group">
				<title>Sheet.23</title>
				<g id="shape22-12" v:mID="22" v:groupContext="shape" transform="translate(16.9663,-11.4799)">
					<title>Diagonal Stripe</title>
					<v:userDefs>
						<v:ud v:nameU="visVersion" v:prompt="" v:val="VT0(15):26"/>
					</v:userDefs>
					<g id="shadow22-13" v:groupContext="shadow" v:shadowOffsetX="0.345598" v:shadowOffsetY="-1.97279"
							v:shadowType="1" transform="matrix(1,0,0,1,0.345598,1.97279)" class="st1">
						<path d="M0 91.79 L56.69 35.1 L45.35 35.1 L0 80.45 L0 91.79 Z" class="st2"/>
					</g>
					<path d="M0 91.79 L56.69 35.1 L45.35 35.1 L0 80.45 L0 91.79 Z" class="st3"/>
				</g>
				<g id="shape21-17" v:mID="21" v:groupContext="shape">
					<title>Donut</title>
					<v:userDefs>
						<v:ud v:nameU="visVersion" v:prompt="" v:val="VT0(15):26"/>
					</v:userDefs>
					<g id="shadow21-18" v:groupContext="shadow" v:shadowOffsetX="0.345598" v:shadowOffsetY="-1.97279"
							v:shadowType="1" transform="matrix(1,0,0,1,0.345598,1.97279)" class="st1">
						<path d="M85.04 49.27 A42.5197 42.5197 -180 1 0 0 49.27 A42.5197 42.5197 -180 1 0 85.04 49.27 ZM11.34 49.27
									 A31.1811 31.1811 0 1 0 73.7 49.27 A31.1811 31.1811 0 1 0 11.34 49.27 Z" class="st2"/>
					</g>
					<path d="M85.04 49.27 A42.5197 42.5197 -180 1 0 0 49.27 A42.5197 42.5197 -180 1 0 85.04 49.27 ZM11.34 49.27 A31.1811
								 31.1811 0 1 0 73.7 49.27 A31.1811 31.1811 0 1 0 11.34 49.27 Z" class="st3"/>
				</g>
			</g>
		</g>
	</g>
</svg>
